<?xml version="1.0" encoding="UTF-8" standalone="no"?><!DOCTYPE svg PUBLIC "-//W3C//DTD SVG 1.1//EN" "http://www.w3.org/Graphics/SVG/1.1/DTD/svg11.dtd"><svg width="100%" height="100%" viewBox="0 0 3192 1210" version="1.1" xmlns="http://www.w3.org/2000/svg" xmlns:xlink="http://www.w3.org/1999/xlink" xml:space="preserve" xmlns:serif="http://www.serif.com/" style="fill-rule:evenodd;clip-rule:evenodd;stroke-linecap:round;stroke-linejoin:round;stroke-miterlimit:1.5;"><g><path d="M3170.83,258.583c0,-131.218 -106.532,-237.75 -237.75,-237.75l-2674.5,0c-131.218,0 -237.75,106.532 -237.75,237.75l0,692.478c0,131.218 106.532,237.75 237.75,237.75l2674.5,-0c131.218,-0 237.75,-106.532 237.75,-237.75l0,-692.478Z" style="fill:#f9fafb;stroke:#ebedee;stroke-width:41.67px;"/><path d="M1039.71,371.137c-0,-86.43 -70.172,-156.601 -156.602,-156.601l-467.369,0c-86.43,0 -156.601,70.171 -156.601,156.601l-0,467.369c-0,86.431 70.171,156.602 156.601,156.602l467.369,0c86.43,0 156.602,-70.171 156.602,-156.602l-0,-467.369Z" style="fill:#0a0a0a;"/><g><g><rect x="399.44" y="720.362" width="74.542" height="73.477" style="fill:#fafafa;"/></g><g><path d="M806.226,511.644l-159.733,0l0,55.907l96.905,-0l-0,170.382l-105.424,-0l0,55.906l258.235,0l-0,-55.906l-89.983,-0l0,-226.289Zm-66.023,-36.206l65.491,0l-0,-59.633l-65.491,-0l0,59.633Z" style="fill:#fafafa;fill-rule:nonzero;"/></g></g><path d="M1383.95,524.798l0,165.674l-40.637,0l0,-165.674l40.637,0Zm-6.877,0l0,35.949l-89.714,-0l0,-35.949l89.714,0Zm58.142,129.726l0,35.948l-152.232,0l-0,-35.948l152.232,0Zm-51.577,-185.992l-0,35.948l-41.263,-0l0,-35.948l41.263,-0Z" style="fill-rule:nonzero;"/><path d="M1489.98,524.798l1.186,23.069c6.627,-17.88 17.568,-26.82 32.823,-26.82c7.795,0 14.224,2.324 19.288,6.97c5.063,4.647 8.928,11.888 11.595,21.725c3.083,-9.42 7.356,-16.557 12.816,-21.412c5.461,-4.855 12.212,-7.283 20.255,-7.283c12.546,0 22.018,5.366 28.417,16.099c6.398,10.732 9.597,26.372 9.597,46.918l0,106.408l-39.513,0l-0,-106.408c-0,-11.543 -0.854,-19.659 -2.562,-24.348c-1.708,-4.689 -4.709,-7.033 -9.004,-7.033c-3.292,-0 -5.991,1.114 -8.096,3.343c-2.105,2.229 -3.709,5.667 -4.813,10.315c-1.104,4.649 -1.656,10.556 -1.656,17.723l-0,106.408l-39.514,0l0,-106.408c0,-11.543 -0.927,-19.659 -2.781,-24.348c-1.855,-4.689 -5.074,-7.033 -9.659,-7.033c-3.002,-0 -5.483,1.114 -7.441,3.343c-1.959,2.229 -3.438,5.667 -4.437,10.315c-1,4.649 -1.5,10.556 -1.5,17.723l0,106.408l-39.577,0l-0,-165.674l34.576,0Z" style="fill-rule:nonzero;"/><path d="M1718.05,681.72c-12.585,-0 -23.848,-3.261 -33.789,-9.783c-9.941,-6.522 -17.684,-15.588 -23.227,-27.196c-5.544,-11.608 -8.316,-24.893 -8.316,-39.855c0,-16.63 2.731,-31.291 8.191,-43.983c5.461,-12.693 13.161,-22.508 23.1,-29.447c9.94,-6.939 21.287,-10.409 34.041,-10.409c10.713,0 20.101,2.564 28.165,7.691c8.064,5.126 14.201,12.232 18.411,21.317l0.753,-25.257l39.259,0l0,141.419c-0.498,25.131 -6.947,43.897 -19.346,56.296c-12.4,12.4 -30.499,18.599 -54.299,18.599c-12.839,0 -24.249,-1.938 -34.231,-5.814c-9.982,-3.877 -18.203,-9.378 -24.663,-16.504c-6.46,-7.126 -10.941,-15.482 -13.441,-25.069l42.512,-2.876c2.501,5.916 6.294,10.521 11.378,13.815c5.085,3.293 11.233,4.94 18.445,4.94c10.293,0 18.305,-3.074 24.036,-9.221c5.731,-6.148 8.681,-14.974 8.85,-26.478l0,-16.943c-3.878,7.378 -10.1,13.349 -18.665,17.913c-8.565,4.563 -17.62,6.845 -27.164,6.845Zm-22.316,-77.587c0,9.671 1.427,18.132 4.281,25.384c2.854,7.251 6.949,12.889 12.284,16.912c5.335,4.023 11.629,6.034 18.88,6.034c7.004,0 13.121,-2.011 18.35,-6.034c5.23,-4.023 9.272,-9.671 12.128,-16.944c2.856,-7.272 4.283,-15.723 4.283,-25.352c0.043,-9.459 -1.312,-17.825 -4.063,-25.1c-2.752,-7.274 -6.785,-12.922 -12.099,-16.943c-5.314,-4.022 -11.513,-6.032 -18.599,-6.032c-7.251,-0 -13.545,2.01 -18.88,6.032c-5.335,4.021 -9.43,9.658 -12.284,16.911c-2.854,7.254 -4.281,15.631 -4.281,25.132Z" style="fill-rule:nonzero;"/><path d="M1941.99,578.066c-1.208,-7.004 -4.355,-12.298 -9.441,-15.881c-5.086,-3.583 -11.546,-5.375 -19.381,-5.375c-7,-0 -12.741,1.459 -17.221,4.376c-4.481,2.918 -6.534,7.022 -6.16,12.313c0.333,4.959 2.968,8.7 7.908,11.222c4.94,2.522 12.953,5.159 24.04,7.91l5.437,1.25c11.797,2.667 22.124,6.273 30.98,10.817c8.857,4.544 15.88,10.243 21.069,17.099c5.188,6.856 7.783,14.765 7.783,23.726c-0,15.88 -6.18,27.967 -18.538,36.26c-12.359,8.294 -28.916,12.441 -49.671,12.441c-13.712,-0 -26.131,-2.376 -37.259,-7.127c-11.128,-4.75 -20.058,-11.471 -26.791,-20.162c-6.732,-8.691 -10.493,-18.746 -11.285,-30.165l43.7,-1.876c0.544,5.002 2.222,9.242 5.035,12.722c2.814,3.479 6.523,6.156 11.127,8.032c4.604,1.875 9.762,2.813 15.473,2.813c7.753,0 13.922,-1.136 18.507,-3.407c4.584,-2.271 6.877,-5.886 6.877,-10.845c-0,-3.002 -1.116,-5.555 -3.346,-7.659c-2.231,-2.103 -5.346,-3.895 -9.346,-5.375c-4,-1.48 -9.19,-3.053 -15.569,-4.721l-7.189,-1.753c-19.296,-4.585 -34.404,-11.003 -45.324,-19.254c-10.919,-8.251 -16.379,-18.9 -16.379,-31.948c-0,-10.501 2.99,-19.701 8.97,-27.601c5.98,-7.899 14.232,-14.016 24.756,-18.35c10.524,-4.334 22.267,-6.501 35.23,-6.501c18.296,0 33.905,5.012 46.825,15.036c12.921,10.025 20.652,23.394 23.196,40.108l-44.013,1.875Z" style="fill-rule:nonzero;"/><path d="M2099.85,524.798l3.624,43.202l-2.814,-2.501c1.918,-13.963 6.379,-24.237 13.381,-30.822c7.002,-6.586 16.838,-9.879 29.508,-9.879l35.138,0l-0,35.885l-30.889,0c-7.834,0 -14.179,1.209 -19.033,3.627c-4.855,2.417 -8.388,6.148 -10.597,11.192c-2.209,5.044 -3.314,11.608 -3.314,19.693l0,95.277l-40.764,0l0,-165.674l25.76,0Zm-5.065,0l-0,35.885l-61.581,0l-0,-35.885l61.581,0Zm69.395,129.79l0,35.884l-130.976,0l-0,-35.884l130.976,-0Z" style="fill-rule:nonzero;"/><path d="M2327.6,589.192c-1.54,-9.628 -5.384,-17.432 -11.532,-23.412c-6.148,-5.98 -13.411,-8.97 -21.789,-8.97c-11.546,-0 -20.539,4.501 -26.978,13.502c-6.439,9.002 -9.659,21.443 -9.659,37.323c0,15.881 3.22,28.322 9.659,37.323c6.439,9.002 15.432,13.503 26.978,13.503c8.795,0 16.319,-3.042 22.57,-9.126c6.252,-6.084 10.086,-14.128 11.503,-24.131l42.825,1.876c-1.377,13.295 -5.609,25.027 -12.694,35.196c-7.086,10.169 -16.223,18.036 -27.413,23.6c-11.19,5.565 -23.453,8.348 -36.791,8.348c-16.046,-0 -30.04,-3.543 -41.982,-10.629c-11.942,-7.085 -21.164,-17.151 -27.665,-30.197c-6.501,-13.045 -9.751,-28.3 -9.751,-45.763c-0,-17.462 3.25,-32.717 9.751,-45.763c6.501,-13.045 15.723,-23.111 27.665,-30.197c11.942,-7.085 25.936,-10.628 41.982,-10.628c13.087,0 25.174,2.762 36.261,8.284c11.087,5.522 20.174,13.285 27.259,23.288c7.085,10.003 11.273,21.403 12.562,34.2l-42.761,2.373Z" style="fill-rule:nonzero;"/><rect x="2454.83" y="644.77" width="46.391" height="45.702" style="fill-rule:nonzero;"/><path d="M2696.84,524.798l-0,165.674l-40.637,0l-0,-165.674l40.637,0Zm-6.877,0l-0,35.949l-89.714,-0l-0,-35.949l89.714,0Zm58.142,129.726l0,35.948l-152.232,0l-0,-35.948l152.232,0Zm-51.578,-185.992l0,35.948l-41.262,-0l0,-35.948l41.262,-0Z" style="fill-rule:nonzero;"/><path d="M2853.13,694.224c-15.213,-0 -28.873,-3.626 -40.981,-10.878c-12.108,-7.251 -21.538,-17.441 -28.29,-30.57c-6.751,-13.129 -10.127,-28.176 -10.127,-45.141c-0,-16.964 3.376,-32.011 10.127,-45.14c6.752,-13.129 16.182,-23.319 28.29,-30.57c12.108,-7.252 25.768,-10.878 40.981,-10.878c15.213,0 28.874,3.626 40.982,10.878c12.108,7.251 21.538,17.441 28.289,30.57c6.752,13.129 10.128,28.176 10.128,45.14c-0,16.965 -3.376,32.012 -10.128,45.141c-6.751,13.129 -16.181,23.319 -28.289,30.57c-12.108,7.252 -25.769,10.878 -40.982,10.878Zm0.034,-35.763c11.355,0 20.294,-4.538 26.817,-13.615c6.524,-9.076 9.786,-21.475 9.786,-37.196c0,-15.724 -3.272,-28.128 -9.817,-37.213c-6.545,-9.085 -15.496,-13.627 -26.854,-13.627c-11.354,-0 -20.293,4.538 -26.817,13.615c-6.524,9.076 -9.786,21.475 -9.786,37.196c0,15.724 3.273,28.128 9.818,37.213c6.545,9.085 15.496,13.627 26.853,13.627Z" style="fill-rule:nonzero;"/></g></svg>