<?xml version="1.0" encoding="UTF-8" standalone="no"?>
<!DOCTYPE svg PUBLIC "-//W3C//DTD SVG 1.1//EN" "http://www.w3.org/Graphics/SVG/1.1/DTD/svg11.dtd">
<svg width="100%" height="100%" viewBox="0 0 2048 2048" version="1.1" xmlns="http://www.w3.org/2000/svg" xmlns:xlink="http://www.w3.org/1999/xlink" xml:space="preserve" xmlns:serif="http://www.serif.com/" style="fill-rule:evenodd;clip-rule:evenodd;stroke-linejoin:round;stroke-miterlimit:2;">
    <path d="M2048,410.877C2048,184.108 1863.89,0 1637.12,0L410.877,0C184.108,0 0,184.108 0,410.877L0,1637.12C0,1863.89 184.108,2048 410.877,2048L1637.12,2048C1863.89,2048 2048,1863.89 2048,1637.12L2048,410.877Z" style="fill:rgb(250,250,250);"/>
    <g transform="matrix(0.63859,0,0,0.63859,-148.596,381.96)">
        <g transform="matrix(2187.6,0,0,2187.6,306,1782)">
            <rect x="0.23" y="-0.138" width="0.14" height="0.138" style="fill:rgb(10,10,10);fill-rule:nonzero;"/>
        </g>
        <g transform="matrix(2187.6,0,0,2187.6,1618.56,1782)">
            <path d="M0.394,-0.53L0.094,-0.53L0.094,-0.425L0.276,-0.425L0.276,-0.105L0.078,-0.105L0.078,-0L0.563,-0L0.563,-0.105L0.394,-0.105L0.394,-0.53ZM0.27,-0.598L0.393,-0.598L0.393,-0.71L0.27,-0.71L0.27,-0.598Z" style="fill:rgb(10,10,10);fill-rule:nonzero;"/>
        </g>
    </g>
</svg>
